<?xml version="1.0" ?>
<!-- Uploaded to: SVG Repo, www.svgrepo.com, Generator: SVG Repo Mixer Tools -->
<svg width="800px" height="800px" viewBox="0 0 20 20" version="1.1" xmlns="http://www.w3.org/2000/svg">
<g id="layer1">
<path d="M 7 2 L 7 4 L 0 4 L 0 17 L 20 17 L 20 4 L 13 4 L 13 2 L 7 2 z M 8 3 L 12 3 L 12 4 L 8 4 L 8 3 z M 1 5 L 19 5 L 19 9 L 12 9 L 12 8 L 8 8 L 8 9 L 1 9 L 1 5 z M 9 9 L 11 9 L 11 10 L 9 10 L 9 9 z M 1 10 L 8 10 L 8 11 L 12 11 L 12 10 L 19 10 L 19 16 L 1 16 L 1 10 z " style="fill:#222222; fill-opacity:1; stroke:none; stroke-width:0px;"/>
</g>
</svg>