<?xml version="1.0" ?><!-- Uploaded to: SVG Repo, www.svgrepo.com, Generator: SVG Repo Mixer Tools -->
<svg fill="#000000" width="800px" height="800px" viewBox="0 0 750 750" id="a" xmlns="http://www.w3.org/2000/svg"><path d="M554.17,358.88c.03-.58,.08-1.16,.11-1.74,2.78-38.04-14.28-74.57-40.01-101.84-18.24-19.74-38.69-38.75-62.52-51.25-21.43-20.1-66.24-15.28-93.52-11.17-14.93,2.36-30.02,5.07-43.78,11.56-28.71,13.43-52.91,34.52-76.99,54.76-37.9,32.01-48.52,86.58-38.41,133.54,5.43,27.03,12.6,54.46,27.95,77.71,18.45,28.62,48.18,46.73,78.38,60.89,30.3,13.78,61.34,30.32,95.52,29.4,26.26-.25,53-7.36,73.54-24.26,28.28-23.47,46.06-56.63,57.95-90.89,9.68-25.69,18.57-52.12,21.25-79.54,.63-2.29,.81-4.77,.56-7.17Zm-111.5-135.01c3.95,6.22,11.72,8.9,17.33,13.46,10.33,6.72,20.47,13.77,29.23,22.51,20.8,21.8,35.33,49.85,42.5,79.03,.51,2.68,.95,5.37,1.35,8.07-6.86,.41-13.71,.82-20.57,1.23-14.64,.62-29.2,2.02-43.72,3.84-1.21-12.38-3.66-24.55-8.42-36.02-7.96-17.16-24.06-27.86-39.72-37.31-.06-9.46-9.63-12.71-17.57-13.45-4.86-.76-9.75-1.34-14.66-1.71-.42-9.36-.83-18.73-1.07-28.09-.12-6.25,.07-12.49,.36-18.73,.12-.89,.25-1.83,.35-2.79,18.71-.33,37.34,2.38,54.61,9.96Zm-157.28,182.6c-3.65-6.06-5.37-14.14-5.76-22.76,21.93-.52,43.87-.69,65.78-1.64,2.74,9.02,8.69,17.01,17.37,21.32,3.86,2.13,7.78,3.45,11.64,4.09-.25,15.88-.71,31.75-1.31,47.62-34.07-.44-69.1-20.67-87.72-48.63Zm87.73-67.81c-7.25-1.24-16.35,3.02-20.71,8.47-3.72,4.03-6.19,8.85-7.53,13.98-5.12-.3-10.24-.64-15.35-1-16-.8-32.01-.41-48.03-.41,1.11-5.86,2.62-11.31,4.32-15.82,8.15-19.78,26.07-33.46,44.06-43.92,12.88-7.39,26.95-10.51,41.31-11.13,.83,16.6,1.39,33.22,1.92,49.84Zm19.92,113.21c-1.08-11.83-2.53-23.62-3.68-35.45-.31-3.2-.53-6.42-.72-9.64,12.6-3.41,22.52-13.98,24.44-26.9,13.06,.15,26.12,.46,39.18,.56-2.45,12.7-6.35,24.81-11.45,33.71-10.11,17.25-28.24,31.35-47.77,37.72Zm31.49-93.32c-4.86,.84-9.74,1.49-14.62,2.01-.31-.64-.63-1.28-.98-1.91-4.57-6.27-11.55-13.44-19.46-14.57,.4-9.45,.74-18.87,.78-28.22-.08-8.88-.35-17.75-.7-26.63,7.09,.57,14.16,1.56,21.11,2.76,15.31,13.39,41.12,20.12,43.56,43.7,.82,5.42,1.13,11.61,.97,18.15-10.23,1.45-20.45,3.06-30.65,4.7Zm-178.2-80.17c13.07-15.55,27.76-30.31,45.33-40.72,17.33-10.45,37.13-15.16,56.79-19.03,6.48-1.35,13.07-2.46,19.71-3.28-1.19,12.23,.3,27.01,.35,32.86,.44,5.06,.82,10.12,1.18,15.18-14.33,1.1-28.35,5.53-41.2,11.89-38.83,18.09-55.3,46.65-60.92,84.37-17.36-.02-34.95-.81-52.05,2.43,1.04-13.66,4.48-27.25,8.89-40.1,5.38-15.41,12.07-30.5,21.92-43.6Zm12.91,190.49c-17.4-22.91-32.83-47.92-41.2-75.61-.52-1.98-.96-3.97-1.33-5.97,2.69-.13,5.51-.83,8.13-.92,13.43-1.14,26.87-1.8,40.32-2.24-4.51,52.34,39.55,92.45,90.58,94.21,5.53,.66,10.99,1.02,16.37,1.06-.85,18.86-1.84,37.72-2.83,56.57-45.08-3.44-83.75-31.21-110.04-67.1Zm269.64-48.53c-9.03,30.72-28.43,57.55-51.05,79.79-23.33,21.97-54.66,35.03-86.6,36.44,1.23-19.64,3.95-39.23,3.52-58.91,41.6-6.98,73.16-35.1,74.89-84.74,.1-4.15,.18-8.33,.21-12.53,7.52-.11,15.04-.35,22.55-.81,14.26-.69,28.45-2.35,42.68-3.43-.18,14.94-2.18,29.86-6.19,44.18Z"/></svg>